<svg width="1041" height="257" xmlns="http://www.w3.org/2000/svg" xmlns:xlink="http://www.w3.org/1999/xlink" xml:space="preserve" overflow="hidden"><defs><clipPath id="clip0"><rect x="462" y="348" width="1041" height="257"/></clipPath></defs><g clip-path="url(#clip0)" transform="translate(-462 -348)"><rect x="467" y="349" width="1034" height="255" fill="#4472C4" fill-opacity="1"/><path d="M1117.46 533.479C1115.91 534.611 1114.68 535.698 1113.75 536.741 1112.83 537.783 1112.09 538.781 1111.52 539.734 1110.95 540.687 1110.58 541.611 1110.4 542.504 1110.22 543.398 1110.14 544.321 1110.14 545.274 1110.14 548.253 1111.64 550.517 1114.65 552.065 1117.66 553.614 1121.9 554.389 1127.38 554.389 1130.78 554.389 1133.64 554.046 1135.96 553.361 1138.28 552.676 1140.16 551.768 1141.59 550.636 1143.02 549.504 1144.03 548.238 1144.63 546.838 1145.22 545.438 1145.52 543.964 1145.52 542.415 1145.52 539.734 1144.45 537.679 1142.3 536.249 1140.16 534.82 1137.21 534.045 1133.46 533.926ZM664.165 500.239C660.531 500.239 657.433 500.507 654.872 501.043 652.31 501.58 650.225 502.384 648.617 503.456 647.009 504.528 645.832 505.824 645.087 507.343 644.343 508.862 643.971 510.604 643.971 512.57 643.971 515.906 645.028 518.527 647.143 520.434 649.257 522.34 652.191 523.293 655.944 523.293 659.101 523.293 662.005 522.489 664.656 520.88 667.307 519.272 670.003 516.919 672.743 513.821L672.743 500.239ZM1217.85 465.212C1215 465.212 1212.51 465.748 1210.39 466.82 1208.28 467.893 1206.52 469.337 1205.12 471.154 1203.72 472.971 1202.65 475.115 1201.9 477.588 1201.16 480.06 1200.73 482.696 1200.61 485.496L1234.21 485.496C1234.39 479.181 1233.12 474.222 1230.41 470.618 1227.7 467.014 1223.51 465.212 1217.85 465.212ZM1126.58 465.212C1124.37 465.212 1122.44 465.584 1120.77 466.329 1119.1 467.073 1117.72 468.086 1116.61 469.367 1115.51 470.648 1114.69 472.137 1114.16 473.835 1113.62 475.532 1113.35 477.305 1113.35 479.151 1113.35 483.202 1114.54 486.404 1116.93 488.757 1119.31 491.11 1122.62 492.287 1126.84 492.287 1129.11 492.287 1131.07 491.929 1132.74 491.214 1134.41 490.499 1135.8 489.517 1136.9 488.266 1138 487.015 1138.83 485.57 1139.4 483.932 1139.97 482.294 1140.25 480.581 1140.25 478.794 1140.25 474.505 1139.06 471.169 1136.67 468.786 1134.29 466.403 1130.93 465.212 1126.58 465.212ZM1063.27 450.826C1065.47 450.826 1067.29 450.915 1068.72 451.094 1070.15 451.272 1071.29 451.526 1072.16 451.853 1073.02 452.181 1073.63 452.568 1073.99 453.015 1074.35 453.462 1074.53 453.983 1074.53 454.579L1074.53 534.105C1074.53 534.701 1074.35 535.222 1073.99 535.669 1073.63 536.115 1073.02 536.488 1072.16 536.786 1071.29 537.083 1070.15 537.307 1068.72 537.456 1067.29 537.605 1065.47 537.679 1063.27 537.679 1061.06 537.679 1059.25 537.605 1057.82 537.456 1056.39 537.307 1055.24 537.083 1054.38 536.786 1053.51 536.488 1052.9 536.115 1052.54 535.669 1052.19 535.222 1052.01 534.701 1052.01 534.105L1052.01 454.579C1052.01 453.983 1052.19 453.462 1052.54 453.015 1052.9 452.568 1053.51 452.181 1054.38 451.853 1055.24 451.526 1056.39 451.272 1057.82 451.094 1059.25 450.915 1061.06 450.826 1063.27 450.826ZM810.09 450.826C812.651 450.826 814.677 450.87 816.166 450.96 817.655 451.049 818.817 451.272 819.651 451.63 820.485 451.987 821.11 452.538 821.527 453.283 821.944 454.028 822.361 455.085 822.778 456.455L841.543 509.8 841.811 509.8 858.967 455.383C859.325 453.834 859.786 452.806 860.352 452.3 860.918 451.794 861.856 451.421 863.167 451.183 864.478 450.945 866.771 450.826 870.047 450.826 872.609 450.826 874.739 450.945 876.436 451.183 878.134 451.421 879.385 451.868 880.189 452.523 880.993 453.179 881.395 454.057 881.396 455.159 881.395 456.261 881.157 457.557 880.681 459.046L854.142 537.143 844.492 565.379C843.956 566.869 842.496 567.941 840.113 568.596 837.73 569.251 834.246 569.579 829.659 569.579 827.276 569.579 825.37 569.475 823.94 569.266 822.51 569.058 821.438 568.715 820.723 568.239 820.008 567.762 819.621 567.166 819.562 566.452 819.502 565.737 819.681 564.873 820.098 563.86L830.731 537.143C829.957 536.786 829.257 536.235 828.631 535.49 828.006 534.745 827.544 533.956 827.246 533.122L799.814 459.851C799.04 457.766 798.652 456.172 798.652 455.07 798.652 453.968 799.01 453.104 799.725 452.479 800.439 451.853 801.646 451.421 803.344 451.183 805.041 450.945 807.29 450.826 810.09 450.826ZM728.683 450.826C730.887 450.826 732.704 450.915 734.134 451.094 735.564 451.272 736.71 451.526 737.574 451.853 738.438 452.181 739.049 452.568 739.406 453.015 739.763 453.462 739.942 453.983 739.942 454.579L739.942 534.105C739.942 534.701 739.763 535.222 739.406 535.669 739.049 536.115 738.438 536.488 737.574 536.786 736.71 537.083 735.564 537.307 734.134 537.456 732.704 537.605 730.887 537.679 728.683 537.679 726.479 537.679 724.662 537.605 723.233 537.456 721.803 537.307 720.656 537.083 719.792 536.786 718.929 536.488 718.318 536.115 717.961 535.669 717.603 535.222 717.424 534.701 717.424 534.105L717.424 454.579C717.424 453.983 717.603 453.462 717.961 453.015 718.318 452.568 718.929 452.181 719.792 451.853 720.656 451.526 721.803 451.272 723.233 451.094 724.662 450.915 726.479 450.826 728.683 450.826ZM1126.84 449.664C1129.35 449.664 1131.74 449.813 1134.04 450.111 1136.33 450.409 1138.46 450.826 1140.43 451.362L1165.71 451.362C1166.73 451.362 1167.55 452.017 1168.17 453.328 1168.8 454.638 1169.11 456.842 1169.11 459.94 1169.11 462.799 1168.78 464.914 1168.13 466.284 1167.47 467.654 1166.67 468.339 1165.71 468.339L1156.33 468.339C1157.64 469.769 1158.58 471.392 1159.15 473.209 1159.71 475.026 1160 476.917 1160 478.883 1160 483.53 1159.22 487.655 1157.67 491.259 1156.12 494.863 1153.9 497.901 1151.02 500.373 1148.13 502.845 1144.64 504.722 1140.56 506.003 1136.48 507.283 1131.94 507.924 1126.93 507.924 1124.37 507.924 1121.93 507.611 1119.61 506.986 1117.28 506.36 1115.5 505.63 1114.25 504.796 1113.53 505.571 1112.89 506.494 1112.32 507.566 1111.76 508.639 1111.48 509.83 1111.48 511.141 1111.48 512.868 1112.24 514.283 1113.75 515.385 1115.27 516.487 1117.4 517.098 1120.14 517.217L1139.53 517.932C1144.06 518.11 1148.1 518.751 1151.64 519.853 1155.19 520.955 1158.16 522.504 1160.58 524.499 1162.99 526.495 1164.84 528.893 1166.12 531.692 1167.4 534.492 1168.04 537.679 1168.04 541.253 1168.04 545.185 1167.17 548.893 1165.45 552.378 1163.72 555.863 1161.13 558.886 1157.67 561.448 1154.22 564.009 1149.88 566.035 1144.67 567.524 1139.46 569.013 1133.37 569.758 1126.4 569.758 1119.61 569.758 1113.81 569.222 1109.02 568.149 1104.22 567.077 1100.29 565.588 1097.22 563.682 1094.16 561.775 1091.92 559.497 1090.52 556.846 1089.12 554.195 1088.42 551.291 1088.42 548.134 1088.42 546.168 1088.68 544.291 1089.18 542.504 1089.69 540.717 1090.43 539.005 1091.42 537.366 1092.4 535.728 1093.6 534.164 1095.03 532.675 1096.46 531.186 1098.1 529.756 1099.95 528.386 1097.39 527.016 1095.41 525.154 1094.01 522.801 1092.61 520.448 1091.91 517.872 1091.91 515.072 1091.91 511.558 1092.71 508.356 1094.32 505.466 1095.93 502.577 1098.01 499.971 1100.57 497.648 1098.49 495.563 1096.82 493.061 1095.57 490.142 1094.32 487.223 1093.69 483.589 1093.69 479.241 1093.69 474.594 1094.51 470.439 1096.15 466.776 1097.79 463.112 1100.07 460.014 1102.99 457.483 1105.91 454.951 1109.39 453.015 1113.44 451.674 1117.49 450.334 1121.96 449.664 1126.84 449.664ZM1302.77 449.307C1305.27 449.307 1307.7 449.485 1310.05 449.843 1312.4 450.2 1314.53 450.647 1316.44 451.183 1318.34 451.719 1319.95 452.3 1321.26 452.925 1322.57 453.551 1323.51 454.087 1324.08 454.534 1324.64 454.981 1325.05 455.427 1325.28 455.874 1325.52 456.321 1325.7 456.857 1325.82 457.483 1325.94 458.108 1326.04 458.883 1326.13 459.806 1326.22 460.729 1326.27 461.876 1326.27 463.246 1326.27 464.854 1326.22 466.165 1326.13 467.178 1326.04 468.19 1325.9 468.995 1325.69 469.59 1325.48 470.186 1325.2 470.588 1324.84 470.797 1324.48 471.005 1324.06 471.109 1323.59 471.109 1323.05 471.109 1322.22 470.797 1321.09 470.171 1319.95 469.546 1318.54 468.875 1316.84 468.161 1315.14 467.446 1313.18 466.776 1310.94 466.15 1308.71 465.525 1306.16 465.212 1303.3 465.212 1301.28 465.212 1299.52 465.42 1298.03 465.837 1296.54 466.254 1295.32 466.85 1294.37 467.624 1293.41 468.399 1292.7 469.307 1292.22 470.35 1291.75 471.392 1291.51 472.509 1291.51 473.701 1291.51 475.547 1292.07 477.096 1293.21 478.347 1294.34 479.598 1295.83 480.7 1297.67 481.653 1299.52 482.606 1301.62 483.5 1303.97 484.334 1306.33 485.168 1308.71 486.076 1311.12 487.059 1313.53 488.042 1315.92 489.189 1318.27 490.499 1320.62 491.81 1322.72 493.418 1324.57 495.325 1326.42 497.231 1327.91 499.509 1329.04 502.16 1330.17 504.811 1330.74 507.954 1330.74 511.587 1330.74 516.115 1329.89 520.106 1328.19 523.561 1326.49 527.016 1324.09 529.905 1321 532.228 1317.9 534.552 1314.23 536.294 1310.01 537.456 1305.78 538.617 1301.19 539.198 1296.24 539.198 1293.27 539.198 1290.42 538.975 1287.71 538.528 1285 538.081 1282.57 537.515 1280.43 536.83 1278.28 536.145 1276.5 535.445 1275.07 534.73 1273.64 534.016 1272.59 533.345 1271.94 532.72 1271.28 532.094 1270.78 531.112 1270.42 529.771 1270.06 528.431 1269.88 526.45 1269.88 523.829 1269.88 522.102 1269.94 520.716 1270.06 519.674 1270.18 518.632 1270.36 517.798 1270.6 517.172 1270.84 516.547 1271.14 516.13 1271.49 515.921 1271.85 515.713 1272.3 515.608 1272.83 515.608 1273.49 515.608 1274.46 515.981 1275.74 516.725 1277.02 517.47 1278.61 518.289 1280.52 519.183 1282.42 520.076 1284.64 520.91 1287.17 521.685 1289.71 522.459 1292.58 522.846 1295.8 522.846 1297.82 522.846 1299.62 522.638 1301.2 522.221 1302.78 521.804 1304.15 521.208 1305.31 520.434 1306.48 519.659 1307.35 518.676 1307.95 517.485 1308.55 516.293 1308.84 514.923 1308.84 513.374 1308.84 511.587 1308.29 510.053 1307.19 508.773 1306.09 507.492 1304.63 506.375 1302.81 505.422 1300.99 504.469 1298.94 503.575 1296.65 502.741 1294.35 501.907 1292 500.984 1289.59 499.971 1287.17 498.958 1284.82 497.797 1282.53 496.486 1280.23 495.176 1278.18 493.567 1276.36 491.661 1274.55 489.755 1273.09 487.461 1271.98 484.781 1270.88 482.1 1270.33 478.883 1270.33 475.13 1270.33 471.318 1271.08 467.818 1272.57 464.631 1274.05 461.444 1276.2 458.719 1279 456.455 1281.8 454.191 1285.21 452.434 1289.23 451.183 1293.25 449.932 1297.76 449.307 1302.77 449.307ZM1218.39 449.307C1225.06 449.307 1230.77 450.289 1235.5 452.255 1240.24 454.221 1244.13 456.946 1247.16 460.431 1250.2 463.916 1252.44 468.041 1253.86 472.807 1255.29 477.573 1256.01 482.755 1256.01 488.355L1256.01 491.929C1256.01 494.669 1255.4 496.695 1254.18 498.005 1252.96 499.316 1251.27 499.971 1249.13 499.971L1200.61 499.971C1200.61 503.367 1201.01 506.449 1201.82 509.219 1202.62 511.989 1203.9 514.342 1205.66 516.279 1207.42 518.215 1209.68 519.689 1212.45 520.702 1215.22 521.714 1218.54 522.221 1222.41 522.221 1226.34 522.221 1229.8 521.938 1232.78 521.372 1235.76 520.806 1238.33 520.18 1240.51 519.495 1242.68 518.81 1244.48 518.185 1245.91 517.619 1247.34 517.053 1248.5 516.77 1249.4 516.77 1249.93 516.77 1250.38 516.874 1250.74 517.083 1251.09 517.291 1251.39 517.664 1251.63 518.2 1251.87 518.736 1252.03 519.495 1252.12 520.478 1252.21 521.461 1252.26 522.697 1252.26 524.186 1252.26 525.497 1252.23 526.614 1252.17 527.537 1252.11 528.461 1252.02 529.25 1251.9 529.905 1251.78 530.56 1251.6 531.112 1251.36 531.558 1251.12 532.005 1250.81 532.437 1250.42 532.854 1250.04 533.271 1248.98 533.837 1247.25 534.552 1245.53 535.267 1243.32 535.966 1240.64 536.652 1237.96 537.337 1234.89 537.932 1231.44 538.439 1227.98 538.945 1224.29 539.198 1220.36 539.198 1213.27 539.198 1207.06 538.305 1201.73 536.518 1196.39 534.73 1191.94 532.02 1188.37 528.386 1184.79 524.752 1182.13 520.165 1180.37 514.625 1178.61 509.085 1177.73 502.592 1177.73 495.146 1177.73 488.057 1178.66 481.668 1180.5 475.979 1182.35 470.29 1185.03 465.465 1188.55 461.504 1192.06 457.542 1196.33 454.519 1201.37 452.434 1206.4 450.349 1212.08 449.307 1218.39 449.307ZM659.608 449.307C665.863 449.307 671.209 449.917 675.647 451.138 680.085 452.36 683.734 454.236 686.593 456.768 689.452 459.299 691.537 462.561 692.848 466.552 694.159 470.543 694.814 475.279 694.814 480.76L694.814 534.373C694.814 535.207 694.516 535.862 693.92 536.339 693.325 536.815 692.386 537.158 691.106 537.366 689.825 537.575 687.933 537.679 685.431 537.679 682.751 537.679 680.8 537.575 679.579 537.366 678.357 537.158 677.494 536.815 676.987 536.339 676.481 535.862 676.228 535.207 676.228 534.373L676.228 528.029C672.951 531.543 669.213 534.284 665.014 536.249 660.814 538.215 656.153 539.198 651.03 539.198 646.8 539.198 642.913 538.647 639.369 537.545 635.824 536.443 632.756 534.805 630.165 532.631 627.574 530.456 625.563 527.761 624.134 524.544 622.704 521.327 621.989 517.574 621.989 513.285 621.989 508.639 622.898 504.603 624.714 501.177 626.531 497.752 629.242 494.923 632.846 492.689 636.45 490.455 640.932 488.802 646.294 487.729 651.655 486.657 657.88 486.121 664.969 486.121L672.743 486.121 672.743 481.296C672.743 478.794 672.49 476.605 671.983 474.728 671.477 472.852 670.643 471.288 669.482 470.037 668.32 468.786 666.771 467.863 664.835 467.267 662.899 466.671 660.501 466.373 657.642 466.373 653.889 466.373 650.538 466.79 647.589 467.624 644.641 468.458 642.034 469.382 639.771 470.394 637.507 471.407 635.616 472.331 634.097 473.164 632.578 473.998 631.342 474.415 630.388 474.415 629.733 474.415 629.152 474.207 628.646 473.79 628.14 473.373 627.723 472.777 627.395 472.003 627.067 471.228 626.814 470.275 626.636 469.143 626.457 468.012 626.367 466.761 626.367 465.391 626.367 463.544 626.516 462.084 626.814 461.012 627.112 459.94 627.678 458.972 628.512 458.108 629.346 457.244 630.805 456.291 632.89 455.249 634.975 454.206 637.418 453.238 640.218 452.345 643.017 451.451 646.07 450.721 649.377 450.155 652.683 449.59 656.093 449.307 659.608 449.307ZM961.03 439.924 961.03 518.557 973.272 518.557C979.705 518.557 985.126 517.723 989.534 516.055 993.943 514.387 997.621 511.87 1000.57 508.505 1003.52 505.139 1005.72 500.954 1007.18 495.95 1008.64 490.946 1009.37 485.108 1009.37 478.436 1009.37 472.956 1008.73 467.863 1007.45 463.157 1006.17 458.451 1004.11 454.37 1001.28 450.915 998.455 447.46 994.821 444.764 990.383 442.828 985.945 440.892 980.122 439.924 972.914 439.924ZM535.926 439.924 535.926 518.557 548.168 518.557C554.601 518.557 560.022 517.723 564.43 516.055 568.839 514.387 572.517 511.87 575.466 508.505 578.414 505.139 580.619 500.954 582.078 495.95 583.538 490.946 584.267 485.108 584.267 478.436 584.267 472.956 583.627 467.863 582.346 463.157 581.065 458.451 579.01 454.37 576.181 450.915 573.351 447.46 569.717 444.764 565.279 442.828 560.841 440.892 555.018 439.924 547.81 439.924ZM1360.9 429.827C1363.11 429.827 1364.94 429.902 1366.4 430.05 1367.86 430.199 1369 430.438 1369.84 430.765 1370.67 431.093 1371.27 431.495 1371.63 431.972 1371.98 432.448 1372.16 432.984 1372.16 433.58L1372.16 451.362 1389.5 451.362C1390.09 451.362 1390.61 451.511 1391.06 451.809 1391.51 452.106 1391.88 452.598 1392.18 453.283 1392.47 453.968 1392.7 454.906 1392.85 456.098 1393 457.289 1393.07 458.748 1393.07 460.476 1393.07 463.752 1392.77 466.091 1392.18 467.49 1391.58 468.89 1390.72 469.59 1389.59 469.59L1372.16 469.59 1372.16 507.03C1372.16 511.379 1372.85 514.64 1374.22 516.815 1375.59 518.989 1378.03 520.076 1381.54 520.076 1382.74 520.076 1383.81 519.972 1384.76 519.763 1385.71 519.555 1386.56 519.317 1387.31 519.049 1388.05 518.78 1388.68 518.542 1389.18 518.334 1389.69 518.125 1390.15 518.021 1390.57 518.021 1390.93 518.021 1391.27 518.125 1391.6 518.334 1391.92 518.542 1392.18 518.959 1392.36 519.585 1392.53 520.21 1392.7 521.059 1392.85 522.131 1393 523.204 1393.07 524.574 1393.07 526.242 1393.07 528.863 1392.91 530.873 1392.58 532.273 1392.25 533.673 1391.82 534.656 1391.28 535.222 1390.75 535.788 1389.96 536.294 1388.92 536.741 1387.87 537.188 1386.65 537.575 1385.25 537.903 1383.85 538.23 1382.33 538.483 1380.69 538.662 1379.06 538.841 1377.4 538.93 1375.74 538.93 1371.27 538.93 1367.4 538.364 1364.12 537.232 1360.84 536.101 1358.13 534.358 1355.99 532.005 1353.84 529.652 1352.27 526.688 1351.25 523.114 1350.24 519.54 1349.73 515.31 1349.73 510.426L1349.73 469.59 1340.17 469.59C1339.04 469.59 1338.18 468.89 1337.58 467.49 1336.99 466.091 1336.69 463.752 1336.69 460.476 1336.69 458.748 1336.76 457.289 1336.91 456.098 1337.06 454.906 1337.28 453.968 1337.58 453.283 1337.88 452.598 1338.25 452.106 1338.7 451.809 1339.14 451.511 1339.67 451.362 1340.26 451.362L1349.73 451.362 1349.73 433.58C1349.73 432.984 1349.9 432.448 1350.22 431.972 1350.55 431.495 1351.15 431.093 1352.01 430.765 1352.88 430.438 1354.04 430.199 1355.5 430.05 1356.96 429.902 1358.76 429.827 1360.9 429.827ZM944.589 421.517 974.255 421.517C984.56 421.517 993.302 422.723 1000.48 425.136 1007.66 427.549 1013.71 431.123 1018.62 435.859 1023.53 440.594 1027.27 446.447 1029.83 453.417 1032.4 460.387 1033.68 468.458 1033.68 477.632 1033.68 488.236 1032.29 497.305 1029.52 504.841 1026.75 512.377 1022.77 518.527 1017.59 523.293 1012.41 528.059 1006.11 531.558 998.693 533.792 991.277 536.026 982.446 537.143 972.2 537.143L944.589 537.143C942.623 537.143 940.97 536.562 939.629 535.401 938.289 534.239 937.619 532.348 937.619 529.727L937.619 428.934C937.619 426.312 938.289 424.421 939.629 423.259 940.97 422.098 942.623 421.517 944.589 421.517ZM519.485 421.517 549.151 421.517C559.456 421.517 568.198 422.723 575.376 425.136 582.555 427.549 588.601 431.123 593.516 435.859 598.43 440.594 602.168 446.447 604.73 453.417 607.291 460.387 608.572 468.458 608.572 477.632 608.572 488.236 607.187 497.305 604.417 504.841 601.647 512.377 597.671 518.527 592.488 523.293 587.305 528.059 581.006 531.558 573.589 533.792 566.173 536.026 557.341 537.143 547.095 537.143L519.485 537.143C517.519 537.143 515.866 536.562 514.525 535.401 513.185 534.239 512.515 532.348 512.515 529.727L512.515 428.934C512.515 426.312 513.185 424.421 514.525 423.259 515.866 422.098 517.519 421.517 519.485 421.517ZM1063.36 415.798C1068.36 415.798 1071.76 416.647 1073.54 418.345 1075.33 420.043 1076.22 423.066 1076.22 427.414 1076.22 431.942 1075.3 435.069 1073.45 436.797 1071.61 438.524 1068.18 439.388 1063.18 439.388 1058.11 439.388 1054.7 438.554 1052.95 436.886 1051.19 435.218 1050.31 432.21 1050.31 427.861 1050.31 423.334 1051.22 420.192 1053.04 418.434 1054.85 416.677 1058.29 415.798 1063.36 415.798ZM728.773 415.798C733.777 415.798 737.172 416.647 738.959 418.345 740.746 420.043 741.64 423.066 741.64 427.414 741.64 431.942 740.716 435.069 738.87 436.797 737.023 438.524 733.598 439.388 728.594 439.388 723.53 439.388 720.12 438.554 718.363 436.886 716.605 435.218 715.727 432.21 715.727 427.861 715.727 423.334 716.635 420.192 718.452 418.434 720.269 416.677 723.709 415.798 728.773 415.798ZM773.944 412.76C776.148 412.76 777.965 412.85 779.394 413.028 780.824 413.207 781.971 413.46 782.835 413.788 783.698 414.115 784.309 414.518 784.666 414.994 785.024 415.471 785.202 416.007 785.202 416.602L785.202 534.105C785.202 534.701 785.024 535.222 784.666 535.669 784.309 536.115 783.698 536.488 782.835 536.786 781.971 537.083 780.824 537.307 779.394 537.456 777.965 537.605 776.148 537.679 773.944 537.679 771.74 537.679 769.923 537.605 768.493 537.456 767.063 537.307 765.917 537.083 765.053 536.786 764.189 536.488 763.578 536.115 763.221 535.669 762.864 535.222 762.685 534.701 762.685 534.105L762.685 416.602C762.685 416.007 762.864 415.471 763.221 414.994 763.578 414.518 764.189 414.115 765.053 413.788 765.917 413.46 767.063 413.207 768.493 413.028 769.923 412.85 771.74 412.76 773.944 412.76Z" stroke="#000000" stroke-width="3" stroke-linecap="butt" stroke-linejoin="round" stroke-miterlimit="10" stroke-opacity="1" fill="none" fill-rule="evenodd"/><text fill="#000000" fill-opacity="0" font-family="Arial,Arial_MSFontService,sans-serif" font-size="156.998" direction="ltr" writing-mode="lr-tb" x="512.515" y="550.133">Daily Digest</text></g></svg>