<svg width="298" height="482" xmlns="http://www.w3.org/2000/svg" xmlns:xlink="http://www.w3.org/1999/xlink" xml:space="preserve" overflow="hidden"><defs><clipPath id="clip0"><rect x="462" y="1035" width="298" height="482"/></clipPath></defs><g clip-path="url(#clip0)" transform="translate(-462 -1035)"><rect x="467" y="1038" width="290" height="477" fill="#4472C4" fill-opacity="1"/><path d="M535.926 1129.04 535.926 1207.67 548.168 1207.67C554.601 1207.67 560.022 1206.84 564.43 1205.17 568.839 1203.51 572.517 1200.99 575.466 1197.62 578.414 1194.26 580.619 1190.07 582.078 1185.07 583.537 1180.06 584.267 1174.23 584.267 1167.55 584.267 1162.07 583.627 1156.98 582.346 1152.27 581.065 1147.57 579.01 1143.49 576.181 1140.03 573.351 1136.58 569.717 1133.88 565.279 1131.95 560.841 1130.01 555.018 1129.04 547.81 1129.04ZM519.485 1110.63 549.151 1110.63C559.456 1110.63 568.198 1111.84 575.376 1114.25 582.555 1116.67 588.601 1120.24 593.516 1124.98 598.43 1129.71 602.168 1135.57 604.73 1142.53 607.291 1149.5 608.572 1157.58 608.572 1166.75 608.572 1177.35 607.187 1186.42 604.417 1193.96 601.647 1201.49 597.671 1207.65 592.488 1212.41 587.305 1217.18 581.006 1220.68 573.589 1222.91 566.173 1225.14 557.341 1226.26 547.095 1226.26L519.485 1226.26C517.519 1226.26 515.866 1225.68 514.525 1224.52 513.185 1223.36 512.515 1221.47 512.515 1218.84L512.515 1118.05C512.515 1115.43 513.185 1113.54 514.525 1112.38 515.866 1111.22 517.519 1110.63 519.485 1110.63Z" stroke="#000000" stroke-width="3" stroke-linecap="butt" stroke-linejoin="round" stroke-miterlimit="10" stroke-opacity="1" fill="none" fill-rule="evenodd"/><text fill="#000000" fill-opacity="0" font-family="Arial,Arial_MSFontService,sans-serif" font-size="115.626" direction="ltr" writing-mode="lr-tb" x="512.515" y="1211.81">D</text><path d="M535.926 1349.04 535.926 1427.67 548.168 1427.67C554.601 1427.67 560.022 1426.84 564.43 1425.17 568.839 1423.51 572.517 1420.99 575.466 1417.62 578.414 1414.26 580.619 1410.07 582.078 1405.07 583.537 1400.06 584.267 1394.23 584.267 1387.55 584.267 1382.07 583.627 1376.98 582.346 1372.27 581.065 1367.57 579.01 1363.49 576.181 1360.03 573.351 1356.58 569.717 1353.88 565.279 1351.95 560.841 1350.01 555.018 1349.04 547.81 1349.04ZM519.485 1330.63 549.151 1330.63C559.456 1330.63 568.198 1331.84 575.376 1334.25 582.555 1336.67 588.601 1340.24 593.516 1344.98 598.43 1349.71 602.168 1355.57 604.73 1362.53 607.291 1369.5 608.572 1377.58 608.572 1386.75 608.572 1397.35 607.187 1406.42 604.417 1413.96 601.647 1421.49 597.671 1427.65 592.488 1432.41 587.305 1437.18 581.006 1440.68 573.589 1442.91 566.173 1445.14 557.341 1446.26 547.095 1446.26L519.485 1446.26C517.519 1446.26 515.866 1445.68 514.525 1444.52 513.185 1443.36 512.515 1441.47 512.515 1438.84L512.515 1338.05C512.515 1335.43 513.185 1333.54 514.525 1332.38 515.866 1331.22 517.519 1330.63 519.485 1330.63Z" stroke="#000000" stroke-width="3" stroke-linecap="butt" stroke-linejoin="round" stroke-miterlimit="10" stroke-opacity="1" fill="none" fill-rule="evenodd"/><text fill="#000000" fill-opacity="0" font-family="Arial,Arial_MSFontService,sans-serif" font-size="115.626" direction="ltr" writing-mode="lr-tb" x="512.515" y="1431.81">D</text></g></svg>